<svg width="464" height="468" viewBox="0 0 464 468" fill="none" xmlns="http://www.w3.org/2000/svg">
<g clip-path="url(#clip0_153_2)">
<path d="M322.198 94.9469C290.033 90.2314 253.405 87.7152 215.258 87.7152C180.348 87.7152 146.714 89.8194 116.612 93.787C116.619 93.3624 116.626 92.9377 116.646 92.5131C117.444 67.864 128.706 44.4795 148.024 27.3576C167.343 10.2356 193.185 0.734659 220.028 0.885309C246.871 1.03596 272.585 10.8263 291.675 28.1638C310.764 45.5013 321.714 69.0105 322.184 93.6666C322.191 94.0976 322.198 94.5223 322.198 94.9469Z" fill="#1E1E1E"/>
<g opacity="0.1">
<path d="M232.886 0.850144C218.609 -0.921387 204.087 0.082665 190.259 3.79722C176.432 7.51178 163.608 13.8539 152.62 22.4127C141.631 30.9714 132.723 41.5558 126.473 53.4797C120.222 65.4036 116.768 78.401 116.335 91.6296C116.315 92.0543 116.308 92.4789 116.301 92.9036C125.244 91.7248 134.505 90.7147 144.012 89.8713C145.175 67.833 154.7 46.8642 170.934 30.6034C187.168 14.3425 209.086 3.81593 232.886 0.850144Z" fill="white"/>
</g>
<path d="M367.167 102.438C352.361 98.7512 337.344 95.8227 322.184 93.6666C297.336 90.1294 272.287 87.9179 247.161 87.0433C236.694 86.6503 226.035 86.4475 215.258 86.4475C206.717 86.4475 198.244 86.5743 189.89 86.8278C165.38 87.493 140.93 89.3909 116.646 92.513C98.6709 94.7869 80.8697 98.102 63.3493 102.438C22.4985 112.814 0 126.72 0 141.589C0 156.458 22.4985 170.364 63.3493 180.739C92.0781 188.041 127.499 193.016 166.094 195.298C182.024 196.248 198.493 196.73 215.258 196.73C232.079 196.73 248.603 196.242 264.582 195.291C299.706 193.206 332.202 188.89 359.399 182.615C359.543 182.577 359.682 182.545 359.826 182.514C361.662 182.095 363.469 181.658 365.256 181.221C365.898 181.056 366.532 180.898 367.167 180.739C367.203 180.726 367.24 180.715 367.277 180.707C367.885 180.555 368.485 180.397 369.085 180.245C370.286 179.928 371.472 179.617 372.638 179.294C372.694 179.281 372.742 179.269 372.79 179.256C373.804 178.977 374.798 178.698 375.784 178.419C376.592 178.185 377.392 177.957 378.185 177.722C378.765 177.551 379.338 177.38 379.903 177.209C380.317 177.082 380.724 176.962 381.125 176.835C381.67 176.67 382.215 176.499 382.753 176.328C382.98 176.258 383.208 176.188 383.429 176.112C383.946 175.954 384.45 175.789 384.954 175.624C385.499 175.447 386.044 175.263 386.582 175.086C387.03 174.94 387.479 174.788 387.92 174.636C388.293 174.502 388.659 174.376 389.031 174.249C390.045 173.9 391.039 173.539 392.019 173.184C392.508 173 392.998 172.823 393.481 172.639C393.957 172.462 394.44 172.278 394.909 172.094C395.682 171.796 396.441 171.498 397.186 171.2C397.545 171.048 397.911 170.902 398.262 170.763C398.532 170.649 398.794 170.541 399.063 170.427C399.256 170.351 399.449 170.269 399.636 170.186C400.332 169.895 401.022 169.597 401.698 169.299C404.293 168.158 406.714 166.992 408.963 165.8C423.072 158.378 430.517 150.145 430.517 141.589C430.517 126.72 408.018 112.814 367.167 102.438ZM366.795 179.522C338.032 186.83 302.514 191.805 263.816 194.068C248.078 194.987 231.81 195.462 215.258 195.462C198.762 195.462 182.549 194.993 166.86 194.074C128.099 191.818 92.5265 186.843 63.7219 179.522C23.5196 169.305 1.37986 155.837 1.37986 141.589C1.38211 140.33 1.55364 139.076 1.89057 137.856C5.40895 125.002 27.0521 112.972 63.7219 103.655C81.1099 99.3527 98.7746 96.0567 116.612 93.787C141.041 90.6472 165.64 88.7429 190.297 88.0827C198.521 87.8355 206.841 87.713 215.258 87.7151C225.89 87.7151 236.405 87.9116 246.74 88.2919C272.012 89.1587 297.207 91.3808 322.198 94.9469C337.226 97.0934 352.115 100.001 366.795 103.655C403.458 112.972 425.094 124.996 428.619 137.843C428.962 139.067 429.136 140.325 429.137 141.589C429.137 155.837 406.997 169.305 366.795 179.522Z" fill="#3F3D56"/>
<path d="M430.124 142.166C430.124 150.633 422.527 158.645 408.963 165.8C406.707 166.992 404.279 168.158 401.698 169.299C401.022 169.597 400.332 169.895 399.636 170.186C399.449 170.269 399.256 170.351 399.063 170.427C398.794 170.541 398.532 170.649 398.262 170.763C397.911 170.902 397.545 171.048 397.186 171.2C396.441 171.498 395.682 171.796 394.91 172.094C394.44 172.278 393.957 172.462 393.481 172.639C392.998 172.823 392.509 173 392.019 173.184C391.039 173.539 390.045 173.9 389.031 174.249C388.659 174.376 388.293 174.502 387.92 174.636C387.479 174.788 387.031 174.94 386.582 175.086C386.044 175.263 385.499 175.447 384.954 175.624C384.45 175.789 383.946 175.954 383.429 176.112C383.208 176.188 382.981 176.258 382.753 176.328C382.215 176.499 381.67 176.67 381.125 176.835C380.724 176.962 380.318 177.082 379.904 177.209C379.338 177.38 378.765 177.551 378.185 177.722C377.392 177.957 376.592 178.185 375.784 178.419C374.798 178.698 373.804 178.977 372.79 179.256C372.742 179.269 372.694 179.281 372.638 179.294C371.472 179.617 370.286 179.928 369.085 180.245C368.485 180.397 367.885 180.555 367.278 180.707C367.24 180.715 367.203 180.726 367.167 180.739C366.532 180.898 365.898 181.056 365.256 181.221C363.476 181.652 361.662 182.089 359.826 182.514C359.682 182.545 359.543 182.577 359.399 182.615C332.94 188.687 300.479 193.111 264.554 195.247C248.817 196.179 232.41 196.673 215.555 196.673C198.549 196.673 182.004 196.172 166.142 195.222C71.4561 189.549 0.986816 167.949 0.986816 142.166C0.994271 140.597 1.25458 139.038 1.75928 137.539C1.80072 137.647 1.84215 137.748 1.89067 137.856C11.7356 161.611 81.6053 180.809 172.262 185.493C186.15 186.215 200.535 186.589 215.258 186.589C230.044 186.589 244.484 186.209 258.427 185.486C349.008 180.783 418.809 161.579 428.619 137.843C428.785 137.463 428.93 137.082 429.054 136.702C429.754 138.452 430.115 140.301 430.124 142.166Z" fill="#3F3D56"/>
<path d="M63.2454 135.343C51.7631 135.343 39.5596 133.074 39.5596 128.868C39.5596 124.662 51.7631 122.392 63.2454 122.392C74.7277 122.392 86.9311 124.662 86.9311 128.868C86.9311 133.074 74.7277 135.343 63.2454 135.343ZM63.2454 123.66C50.1001 123.66 40.9394 126.405 40.9394 128.868C40.9394 131.331 50.1001 134.076 63.2454 134.076C76.3906 134.076 85.5513 131.331 85.5513 128.868C85.5513 126.405 76.3906 123.66 63.2454 123.66Z" fill="#3F3D56"/>
<path d="M112.23 165.132C100.748 165.132 88.5447 162.863 88.5447 158.657C88.5447 154.451 100.748 152.181 112.23 152.181C123.713 152.181 135.916 154.451 135.916 158.657C135.916 162.863 123.713 165.132 112.23 165.132ZM112.23 153.449C99.0852 153.449 89.9245 156.194 89.9245 158.657C89.9245 161.12 99.0852 163.865 112.23 163.865C125.376 163.865 134.536 161.12 134.536 158.657C134.536 156.194 125.376 153.449 112.23 153.449Z" fill="#3F3D56"/>
<path d="M366.815 135.343C355.333 135.343 343.129 133.074 343.129 128.868C343.129 124.662 355.333 122.392 366.815 122.392C378.297 122.392 390.501 124.662 390.501 128.868C390.501 133.074 378.297 135.343 366.815 135.343ZM366.815 123.66C353.67 123.66 344.509 126.405 344.509 128.868C344.509 131.331 353.67 134.076 366.815 134.076C379.96 134.076 389.121 131.331 389.121 128.868C389.121 126.405 379.96 123.66 366.815 123.66Z" fill="#3F3D56"/>
<path d="M317.83 165.132C306.348 165.132 294.144 162.863 294.144 158.657C294.144 154.451 306.348 152.181 317.83 152.181C329.312 152.181 341.516 154.451 341.516 158.657C341.516 162.863 329.312 165.132 317.83 165.132ZM317.83 153.449C304.685 153.449 295.524 156.194 295.524 158.657C295.524 161.12 304.685 163.865 317.83 163.865C330.975 163.865 340.136 161.12 340.136 158.657C340.136 156.194 330.975 153.449 317.83 153.449Z" fill="#3F3D56"/>
<path d="M215.03 179.076C203.548 179.076 191.344 176.807 191.344 172.6C191.344 168.394 203.548 166.125 215.03 166.125C226.513 166.125 238.716 168.394 238.716 172.6C238.716 176.807 226.513 179.076 215.03 179.076ZM215.03 167.393C201.885 167.393 192.724 170.137 192.724 172.6C192.724 175.064 201.885 177.808 215.03 177.808C228.175 177.808 237.336 175.064 237.336 172.6C237.336 170.137 228.175 167.393 215.03 167.393Z" fill="#3F3D56"/>
<path d="M232.491 312.288C248.5 312.288 261.477 300.366 261.477 285.66C261.477 270.954 248.5 259.032 232.491 259.032C216.483 259.032 203.506 270.954 203.506 285.66C203.506 300.366 216.483 312.288 232.491 312.288Z" fill="#2F2E41"/>
<path d="M221.469 303.155L207.362 309.645L211.305 316.878L225.412 310.388L221.469 303.155Z" fill="#2F2E41"/>
<path d="M213.165 316.144C214.001 314.978 211.937 312.372 208.553 310.322C205.17 308.273 201.749 307.556 200.912 308.722C200.076 309.888 202.14 312.494 205.524 314.543C208.907 316.593 212.328 317.309 213.165 316.144Z" fill="#2F2E41"/>
<path d="M243.514 303.155L239.571 310.388L253.678 316.878L257.621 309.644L243.514 303.155Z" fill="#2F2E41"/>
<path d="M259.459 314.543C262.842 312.494 264.907 309.887 264.07 308.722C263.234 307.556 259.813 308.273 256.429 310.322C253.046 312.372 250.981 314.978 251.818 316.143C252.654 317.309 256.075 316.593 259.459 314.543Z" fill="#2F2E41"/>
<path d="M230.462 288.247C235.933 288.247 240.369 284.173 240.369 279.147C240.369 274.12 235.933 270.046 230.462 270.046C224.991 270.046 220.556 274.12 220.556 279.147C220.556 284.173 224.991 288.247 230.462 288.247Z" fill="white"/>
<path d="M232.872 277.402C234.156 276.222 234.149 274.303 232.855 273.115C231.562 271.927 229.473 271.92 228.189 273.1C226.904 274.279 226.912 276.199 228.205 277.387C229.498 278.575 231.588 278.582 232.872 277.402Z" fill="#3F3D56"/>
<path d="M255.357 256.692C255.793 246.834 246.544 238.484 234.7 238.042C222.855 237.6 212.9 245.233 212.464 255.091C212.028 264.949 220.262 267.189 232.106 267.631C243.951 268.073 254.921 266.55 255.357 256.692Z" fill="#1E1E1E"/>
<path d="M272.065 299.603C273.972 298.1 271.291 292.358 266.077 286.779C260.863 281.199 255.091 277.895 253.185 279.399C251.278 280.903 253.959 286.644 259.173 292.224C264.386 297.803 270.158 301.107 272.065 299.603Z" fill="#2F2E41"/>
<path d="M205.891 292.224C211.105 286.644 213.786 280.903 211.879 279.399C209.973 277.895 204.201 281.199 198.987 286.779C193.773 292.358 191.092 298.1 192.999 299.603C194.905 301.107 200.677 297.803 205.891 292.224Z" fill="#2F2E41"/>
<path d="M240.452 296.154C240.766 297.737 240.382 299.369 239.386 300.693C238.389 302.016 236.861 302.921 235.138 303.209C233.414 303.497 231.637 303.145 230.197 302.229C228.756 301.314 227.771 299.91 227.457 298.327L227.455 298.315C226.805 295.018 229.58 293.851 233.169 293.254C236.758 292.657 239.803 292.856 240.452 296.154Z" fill="white"/>
<path d="M183.521 313.985C183.156 313.985 182.805 313.851 182.546 313.613C182.287 313.376 182.142 313.053 182.142 312.717V237.928C182.142 237.592 182.287 237.269 182.546 237.031C182.805 236.794 183.156 236.66 183.521 236.66C183.887 236.66 184.238 236.794 184.497 237.031C184.756 237.269 184.901 237.592 184.901 237.928V312.717C184.901 313.053 184.756 313.376 184.497 313.613C184.238 313.851 183.887 313.985 183.521 313.985Z" fill="#CCCCCC"/>
<path d="M162.824 381.168C162.458 381.168 162.107 381.035 161.848 380.797C161.589 380.559 161.444 380.237 161.444 379.901V325.393C161.444 325.057 161.589 324.734 161.848 324.497C162.107 324.259 162.458 324.125 162.824 324.125C163.19 324.125 163.541 324.259 163.799 324.497C164.058 324.734 164.204 325.057 164.204 325.393V379.901C164.204 380.237 164.058 380.559 163.799 380.797C163.541 381.035 163.19 381.168 162.824 381.168Z" fill="#CCCCCC"/>
<path d="M215.948 336.168C215.582 336.168 215.231 336.034 214.973 335.797C214.714 335.559 214.568 335.236 214.568 334.9V260.111C214.568 259.775 214.714 259.452 214.972 259.215C215.231 258.977 215.582 258.843 215.948 258.843C216.314 258.843 216.665 258.977 216.924 259.215C217.183 259.452 217.328 259.775 217.328 260.111V334.9C217.328 335.236 217.183 335.559 216.924 335.797C216.665 336.034 216.314 336.168 215.948 336.168Z" fill="#CCCCCC"/>
<path d="M195.94 390.042C195.574 390.041 195.223 389.908 194.964 389.67C194.706 389.432 194.56 389.11 194.56 388.774V358.351C194.56 358.015 194.706 357.692 194.964 357.455C195.223 357.217 195.574 357.083 195.94 357.083C196.306 357.083 196.657 357.217 196.916 357.455C197.175 357.692 197.32 358.015 197.32 358.351V388.774C197.32 389.11 197.175 389.432 196.916 389.67C196.657 389.908 196.306 390.041 195.94 390.042Z" fill="#CCCCCC"/>
<path d="M224.228 234.125C223.862 234.125 223.511 233.991 223.252 233.753C222.993 233.516 222.848 233.193 222.848 232.857V202.434C222.848 202.098 222.993 201.776 223.252 201.538C223.511 201.3 223.862 201.167 224.228 201.167C224.593 201.167 224.944 201.3 225.203 201.538C225.462 201.776 225.607 202.098 225.607 202.434V232.857C225.607 233.193 225.462 233.516 225.203 233.753C224.944 233.991 224.593 234.125 224.228 234.125Z" fill="#CCCCCC"/>
<path d="M155.234 247.435C154.868 247.435 154.517 247.301 154.259 247.064C154 246.826 153.855 246.503 153.854 246.167V215.744C153.854 215.408 154 215.086 154.259 214.848C154.517 214.61 154.868 214.477 155.234 214.477C155.6 214.477 155.951 214.61 156.21 214.848C156.469 215.086 156.614 215.408 156.614 215.744V246.167C156.614 246.503 156.469 246.826 156.21 247.064C155.951 247.301 155.6 247.435 155.234 247.435Z" fill="#CCCCCC"/>
<path d="M275.282 250.604C274.916 250.604 274.565 250.47 274.307 250.232C274.048 249.995 273.902 249.672 273.902 249.336V218.913C273.902 218.577 274.048 218.255 274.306 218.017C274.565 217.779 274.916 217.646 275.282 217.646C275.648 217.646 275.999 217.779 276.258 218.017C276.517 218.255 276.662 218.577 276.662 218.913V249.336C276.662 249.672 276.517 249.995 276.258 250.232C275.999 250.47 275.648 250.604 275.282 250.604Z" fill="#CCCCCC"/>
<path d="M272.522 345.675C272.156 345.675 271.806 345.541 271.547 345.304C271.288 345.066 271.143 344.744 271.143 344.407V307.647C271.143 307.31 271.288 306.988 271.547 306.75C271.805 306.512 272.156 306.379 272.522 306.379C272.888 306.379 273.239 306.512 273.498 306.75C273.757 306.988 273.902 307.31 273.902 307.647V344.407C273.902 344.744 273.757 345.066 273.498 345.304C273.239 345.541 272.888 345.675 272.522 345.675Z" fill="#CCCCCC"/>
<path d="M244.925 377.999C244.559 377.999 244.208 377.866 243.95 377.628C243.691 377.39 243.545 377.068 243.545 376.732V322.224C243.545 321.888 243.691 321.566 243.95 321.328C244.208 321.09 244.559 320.957 244.925 320.957C245.291 320.957 245.642 321.09 245.901 321.328C246.16 321.566 246.305 321.888 246.305 322.224V376.732C246.305 377.068 246.16 377.39 245.901 377.628C245.642 377.866 245.291 377.999 244.925 377.999Z" fill="#CCCCCC"/>
<path d="M250.445 284.829C250.079 284.829 249.728 284.696 249.469 284.458C249.21 284.22 249.065 283.898 249.065 283.562V208.772C249.065 208.436 249.21 208.114 249.469 207.876C249.728 207.638 250.079 207.505 250.445 207.505C250.811 207.505 251.162 207.638 251.42 207.876C251.679 208.114 251.825 208.436 251.825 208.772V283.562C251.825 283.898 251.679 284.22 251.42 284.458C251.162 284.696 250.811 284.829 250.445 284.829Z" fill="#CCCCCC"/>
<path d="M419.611 443.977C421.586 442.458 418.917 436.541 413.65 430.762C408.382 424.982 402.511 421.528 400.536 423.048C398.561 424.567 401.23 430.483 406.498 436.263C411.765 442.042 417.636 445.496 419.611 443.977Z" fill="#2F2E41"/>
<path d="M406.659 437.404C411.848 423.103 403.434 407.644 387.866 402.877C372.298 398.11 355.471 405.839 350.281 420.141C345.092 434.443 353.506 449.901 369.074 454.668C384.642 459.436 401.469 451.706 406.659 437.404Z" fill="#2F2E41"/>
<path d="M391.046 450.195H382.02V465.053H391.046V450.195Z" fill="#2F2E41"/>
<path d="M372.993 450.195H363.966V465.053H372.993V450.195Z" fill="#2F2E41"/>
<path d="M383.524 467.817C387.679 467.817 391.046 466.657 391.046 465.225C391.046 463.794 387.679 462.634 383.524 462.634C379.369 462.634 376.002 463.794 376.002 465.225C376.002 466.657 379.369 467.817 383.524 467.817Z" fill="#2F2E41"/>
<path d="M365.47 467.471C369.625 467.471 372.993 466.311 372.993 464.88C372.993 463.449 369.625 462.288 365.47 462.288C361.316 462.288 357.948 463.449 357.948 464.88C357.948 466.311 361.316 467.471 365.47 467.471Z" fill="#2F2E41"/>
<path d="M369.14 394.46C371.793 384.644 383.505 378.868 395.298 381.558C407.092 384.249 414.502 394.387 411.849 404.203C409.196 414.018 400.393 414.05 388.6 411.36C376.806 408.669 366.487 404.276 369.14 394.46Z" fill="#CCCCCC"/>
<path d="M358.426 421.955C359.53 419.817 354.415 415.466 347.001 412.236C339.588 409.005 332.683 408.12 331.579 410.258C330.475 412.396 335.59 416.748 343.004 419.978C350.417 423.208 357.322 424.094 358.426 421.955Z" fill="#2F2E41"/>
<path d="M374.028 432.113C379.499 432.113 383.934 428.039 383.934 423.013C383.934 417.987 379.499 413.912 374.028 413.912C368.556 413.912 364.121 417.987 364.121 423.013C364.121 428.039 368.556 432.113 374.028 432.113Z" fill="white"/>
<path d="M369.956 422.784C371.78 422.784 373.258 421.426 373.258 419.751C373.258 418.075 371.78 416.717 369.956 416.717C368.132 416.717 366.654 418.075 366.654 419.751C366.654 421.426 368.132 422.784 369.956 422.784Z" fill="#3F3D56"/>
<path d="M373.942 445.817C376.229 445.817 378.082 444.114 378.082 442.014C378.082 439.914 376.229 438.211 373.942 438.211C371.656 438.211 369.803 439.914 369.803 442.014C369.803 444.114 371.656 445.817 373.942 445.817Z" fill="white"/>
<path d="M463.31 468H300.487C300.304 468 300.128 467.933 299.999 467.814C299.869 467.696 299.797 467.534 299.797 467.366C299.797 467.198 299.869 467.037 299.999 466.918C300.128 466.799 300.304 466.732 300.487 466.732H463.31C463.493 466.732 463.669 466.799 463.798 466.918C463.927 467.037 464 467.198 464 467.366C464 467.534 463.927 467.696 463.798 467.814C463.669 467.933 463.493 468 463.31 468Z" fill="#3F3D56"/>
</g>
<defs>
<clipPath id="clip0_153_2">
<rect width="464" height="468" fill="white"/>
</clipPath>
</defs>
</svg>
